<mxfile host="Electron" agent="Mozilla/5.0 (Macintosh; Intel Mac OS X 10_15_7) AppleWebKit/537.36 (KHTML, like Gecko) draw.io/26.2.2 Chrome/134.0.6998.178 Electron/35.1.2 Safari/537.36" version="26.2.2">
  <diagram name="Page-1" id="uFNY2tgUwzBCQaIbQbTQ">
    <mxGraphModel dx="1311" dy="904" grid="1" gridSize="10" guides="1" tooltips="1" connect="1" arrows="1" fold="1" page="1" pageScale="1" pageWidth="850" pageHeight="1100" math="0" shadow="0">
      <root>
        <mxCell id="0" />
        <mxCell id="1" parent="0" />
        <mxCell id="QjlgSMQUOBEvEYTRAgmL-48" style="rounded=1;hachureGap=4;orthogonalLoop=1;jettySize=auto;html=1;fontFamily=Architects Daughter;fontSource=https%3A%2F%2Ffonts.googleapis.com%2Fcss%3Ffamily%3DArchitects%2BDaughter;fillColor=#60a917;strokeColor=#2D7600;strokeWidth=5.9055;startArrow=block;startFill=1;endArrow=none;endFill=1;exitX=0.172;exitY=1;exitDx=0;exitDy=0;entryX=0.171;entryY=0.008;entryDx=0;entryDy=0;entryPerimeter=0;exitPerimeter=0;" edge="1" parent="1">
          <mxGeometry relative="1" as="geometry">
            <mxPoint x="258.84000000000003" y="279.9999999999999" as="sourcePoint" />
            <mxPoint x="258.12" y="441.9200000000001" as="targetPoint" />
          </mxGeometry>
        </mxCell>
        <mxCell id="QjlgSMQUOBEvEYTRAgmL-49" style="edgeStyle=orthogonalEdgeStyle;rounded=1;hachureGap=4;orthogonalLoop=1;jettySize=auto;html=1;fontFamily=Architects Daughter;fontSource=https%3A%2F%2Ffonts.googleapis.com%2Fcss%3Ffamily%3DArchitects%2BDaughter;fillColor=#60a917;strokeColor=#2D7600;strokeWidth=5.9055;startArrow=none;startFill=0;endArrow=block;endFill=1;exitX=0.678;exitY=0.998;exitDx=0;exitDy=0;curved=0;exitPerimeter=0;" edge="1" parent="1" source="QjlgSMQUOBEvEYTRAgmL-30">
          <mxGeometry relative="1" as="geometry">
            <mxPoint x="381" y="278" as="sourcePoint" />
            <mxPoint x="501" y="440" as="targetPoint" />
          </mxGeometry>
        </mxCell>
        <mxCell id="QjlgSMQUOBEvEYTRAgmL-30" value="" style="rounded=0;whiteSpace=wrap;html=1;hachureGap=4;fontFamily=Architects Daughter;fontSource=https%3A%2F%2Ffonts.googleapis.com%2Fcss%3Ffamily%3DArchitects%2BDaughter;fillColor=#dae8fc;strokeColor=#C3D0E2;" vertex="1" parent="1">
          <mxGeometry x="40" y="40" width="680" height="240" as="geometry" />
        </mxCell>
        <mxCell id="QjlgSMQUOBEvEYTRAgmL-74" value="Internal perimeter" style="rounded=1;whiteSpace=wrap;html=1;hachureGap=4;fontFamily=Architects Daughter;fontSource=https%3A%2F%2Ffonts.googleapis.com%2Fcss%3Ffamily%3DArchitects%2BDaughter;strokeColor=default;fillColor=none;dashed=1;verticalAlign=top;" vertex="1" parent="1">
          <mxGeometry x="44" y="43" width="446" height="232" as="geometry" />
        </mxCell>
        <mxCell id="QjlgSMQUOBEvEYTRAgmL-31" value="" style="rounded=0;whiteSpace=wrap;html=1;hachureGap=4;fontFamily=Architects Daughter;fontSource=https%3A%2F%2Ffonts.googleapis.com%2Fcss%3Ffamily%3DArchitects%2BDaughter;fillColor=#f5f5f5;fontColor=#333333;strokeColor=#E6E6E6;" vertex="1" parent="1">
          <mxGeometry x="40" y="440" width="680" height="160" as="geometry" />
        </mxCell>
        <mxCell id="QjlgSMQUOBEvEYTRAgmL-33" value="↑ Cloud" style="text;html=1;align=left;verticalAlign=middle;whiteSpace=wrap;rounded=0;fontFamily=Architects Daughter;fontSource=https%3A%2F%2Ffonts.googleapis.com%2Fcss%3Ffamily%3DArchitects%2BDaughter;fontSize=18;" vertex="1" parent="1">
          <mxGeometry x="40" y="330" width="160" height="30" as="geometry" />
        </mxCell>
        <mxCell id="QjlgSMQUOBEvEYTRAgmL-34" value="↓ On-Premise" style="text;html=1;align=left;verticalAlign=middle;whiteSpace=wrap;rounded=0;fontFamily=Architects Daughter;fontSource=https%3A%2F%2Ffonts.googleapis.com%2Fcss%3Ffamily%3DArchitects%2BDaughter;fontSize=18;" vertex="1" parent="1">
          <mxGeometry x="40" y="360" width="160" height="30" as="geometry" />
        </mxCell>
        <mxCell id="QjlgSMQUOBEvEYTRAgmL-42" style="edgeStyle=orthogonalEdgeStyle;rounded=1;hachureGap=4;orthogonalLoop=1;jettySize=auto;html=1;fontFamily=Architects Daughter;fontSource=https%3A%2F%2Ffonts.googleapis.com%2Fcss%3Ffamily%3DArchitects%2BDaughter;fillColor=#60a917;strokeColor=#2D7600;strokeWidth=5.9055;startArrow=block;startFill=1;endArrow=block;endFill=1;exitX=1;exitY=0.25;exitDx=0;exitDy=0;entryX=0;entryY=0.5;entryDx=0;entryDy=0;curved=0;" edge="1" parent="1" source="QjlgSMQUOBEvEYTRAgmL-37" target="QjlgSMQUOBEvEYTRAgmL-40">
          <mxGeometry relative="1" as="geometry">
            <Array as="points">
              <mxPoint x="530" y="145" />
              <mxPoint x="530" y="100" />
            </Array>
          </mxGeometry>
        </mxCell>
        <mxCell id="QjlgSMQUOBEvEYTRAgmL-37" value="Business Apps" style="rounded=1;whiteSpace=wrap;html=1;sketch=1;hachureGap=4;jiggle=2;curveFitting=1;fontFamily=Architects Daughter;fontSource=https%3A%2F%2Ffonts.googleapis.com%2Fcss%3Ffamily%3DArchitects%2BDaughter;fillColor=#e1d5e7;strokeColor=#9673a6;fontSize=16;strokeWidth=1.9685;" vertex="1" parent="1">
          <mxGeometry x="70" y="130" width="120" height="60" as="geometry" />
        </mxCell>
        <mxCell id="QjlgSMQUOBEvEYTRAgmL-39" value="Business Apps" style="rounded=1;whiteSpace=wrap;html=1;sketch=1;hachureGap=4;jiggle=2;curveFitting=1;fontFamily=Architects Daughter;fontSource=https%3A%2F%2Ffonts.googleapis.com%2Fcss%3Ffamily%3DArchitects%2BDaughter;fillColor=#e1d5e7;strokeColor=#9673a6;fontSize=16;strokeWidth=1.9685;" vertex="1" parent="1">
          <mxGeometry x="340" y="210" width="120" height="60" as="geometry" />
        </mxCell>
        <mxCell id="QjlgSMQUOBEvEYTRAgmL-40" value="Business Partners" style="rounded=1;whiteSpace=wrap;html=1;sketch=1;hachureGap=4;jiggle=2;curveFitting=1;fontFamily=Architects Daughter;fontSource=https%3A%2F%2Ffonts.googleapis.com%2Fcss%3Ffamily%3DArchitects%2BDaughter;fillColor=#e1d5e7;strokeColor=#9673a6;fontSize=16;strokeWidth=1.9685;" vertex="1" parent="1">
          <mxGeometry x="570" y="70" width="120" height="60" as="geometry" />
        </mxCell>
        <mxCell id="QjlgSMQUOBEvEYTRAgmL-41" value="Government Agency" style="rounded=1;whiteSpace=wrap;html=1;sketch=1;hachureGap=4;jiggle=2;curveFitting=1;fontFamily=Architects Daughter;fontSource=https%3A%2F%2Ffonts.googleapis.com%2Fcss%3Ffamily%3DArchitects%2BDaughter;fillColor=#e1d5e7;strokeColor=#9673a6;fontSize=16;strokeWidth=1.9685;" vertex="1" parent="1">
          <mxGeometry x="570" y="180" width="120" height="60" as="geometry" />
        </mxCell>
        <mxCell id="QjlgSMQUOBEvEYTRAgmL-43" style="edgeStyle=orthogonalEdgeStyle;rounded=1;hachureGap=4;orthogonalLoop=1;jettySize=auto;html=1;fontFamily=Architects Daughter;fontSource=https%3A%2F%2Ffonts.googleapis.com%2Fcss%3Ffamily%3DArchitects%2BDaughter;fillColor=#60a917;strokeColor=#2D7600;strokeWidth=5.9055;startArrow=block;startFill=1;endArrow=block;endFill=1;exitX=1;exitY=0.5;exitDx=0;exitDy=0;entryX=0;entryY=0.5;entryDx=0;entryDy=0;curved=0;" edge="1" parent="1" source="QjlgSMQUOBEvEYTRAgmL-37" target="QjlgSMQUOBEvEYTRAgmL-41">
          <mxGeometry relative="1" as="geometry">
            <mxPoint x="190" y="110" as="sourcePoint" />
            <mxPoint x="630" y="110" as="targetPoint" />
            <Array as="points">
              <mxPoint x="530" y="160" />
              <mxPoint x="530" y="210" />
            </Array>
          </mxGeometry>
        </mxCell>
        <mxCell id="QjlgSMQUOBEvEYTRAgmL-44" value="Business Apps" style="rounded=1;whiteSpace=wrap;html=1;sketch=1;hachureGap=4;jiggle=2;curveFitting=1;fontFamily=Architects Daughter;fontSource=https%3A%2F%2Ffonts.googleapis.com%2Fcss%3Ffamily%3DArchitects%2BDaughter;fillColor=#e1d5e7;strokeColor=#9673a6;fontSize=16;strokeWidth=1.9685;" vertex="1" parent="1">
          <mxGeometry x="130" y="500" width="120" height="60" as="geometry" />
        </mxCell>
        <mxCell id="QjlgSMQUOBEvEYTRAgmL-45" value="Business Apps" style="rounded=1;whiteSpace=wrap;html=1;sketch=1;hachureGap=4;jiggle=2;curveFitting=1;fontFamily=Architects Daughter;fontSource=https%3A%2F%2Ffonts.googleapis.com%2Fcss%3Ffamily%3DArchitects%2BDaughter;fillColor=#e1d5e7;strokeColor=#9673a6;fontSize=16;strokeWidth=1.9685;" vertex="1" parent="1">
          <mxGeometry x="580" y="500" width="120" height="60" as="geometry" />
        </mxCell>
        <mxCell id="QjlgSMQUOBEvEYTRAgmL-46" style="edgeStyle=orthogonalEdgeStyle;rounded=1;hachureGap=4;orthogonalLoop=1;jettySize=auto;html=1;fontFamily=Architects Daughter;fontSource=https%3A%2F%2Ffonts.googleapis.com%2Fcss%3Ffamily%3DArchitects%2BDaughter;fillColor=#60a917;strokeColor=#2D7600;strokeWidth=5.9055;startArrow=block;startFill=1;endArrow=block;endFill=1;exitX=1;exitY=0.75;exitDx=0;exitDy=0;entryX=0.5;entryY=0;entryDx=0;entryDy=0;curved=0;" edge="1" parent="1" source="QjlgSMQUOBEvEYTRAgmL-37" target="QjlgSMQUOBEvEYTRAgmL-39">
          <mxGeometry relative="1" as="geometry">
            <mxPoint x="230" y="125" as="sourcePoint" />
            <mxPoint x="590" y="220" as="targetPoint" />
          </mxGeometry>
        </mxCell>
        <mxCell id="QjlgSMQUOBEvEYTRAgmL-50" style="edgeStyle=orthogonalEdgeStyle;rounded=0;hachureGap=4;orthogonalLoop=1;jettySize=auto;html=1;fontFamily=Architects Daughter;fontSource=https%3A%2F%2Ffonts.googleapis.com%2Fcss%3Ffamily%3DArchitects%2BDaughter;fillColor=#60a917;strokeColor=#2D7600;strokeWidth=5.9055;startArrow=block;startFill=1;endArrow=block;endFill=1;exitX=1;exitY=0.5;exitDx=0;exitDy=0;entryX=0;entryY=0.5;entryDx=0;entryDy=0;" edge="1" parent="1" source="QjlgSMQUOBEvEYTRAgmL-44" target="QjlgSMQUOBEvEYTRAgmL-45">
          <mxGeometry relative="1" as="geometry">
            <mxPoint x="240" y="510" as="sourcePoint" />
            <mxPoint x="580" y="509.63" as="targetPoint" />
          </mxGeometry>
        </mxCell>
        <mxCell id="QjlgSMQUOBEvEYTRAgmL-51" value="Cloud To Cloud" style="rounded=0;whiteSpace=wrap;html=1;hachureGap=4;fontFamily=Architects Daughter;fontSource=https%3A%2F%2Ffonts.googleapis.com%2Fcss%3Ffamily%3DArchitects%2BDaughter;fillColor=#60a917;strokeColor=#2D7600;fontSize=18;fontColor=#ffffff;" vertex="1" parent="1">
          <mxGeometry x="247" y="129" width="120" height="60" as="geometry" />
        </mxCell>
        <mxCell id="QjlgSMQUOBEvEYTRAgmL-53" value="OnPremise To OnPremise" style="rounded=0;whiteSpace=wrap;html=1;hachureGap=4;fontFamily=Architects Daughter;fontSource=https%3A%2F%2Ffonts.googleapis.com%2Fcss%3Ffamily%3DArchitects%2BDaughter;fillColor=#60a917;strokeColor=#2D7600;fontSize=18;fontColor=#ffffff;" vertex="1" parent="1">
          <mxGeometry x="345" y="500" width="120" height="60" as="geometry" />
        </mxCell>
        <mxCell id="QjlgSMQUOBEvEYTRAgmL-56" value="" style="endArrow=none;html=1;rounded=0;hachureGap=4;fontFamily=Architects Daughter;fontSource=https%3A%2F%2Ffonts.googleapis.com%2Fcss%3Ffamily%3DArchitects%2BDaughter;fillColor=#f5f5f5;strokeColor=#666666;fontColor=#F5F5F5;strokeWidth=1.9685;" edge="1" parent="1">
          <mxGeometry width="50" height="50" relative="1" as="geometry">
            <mxPoint x="40" y="360" as="sourcePoint" />
            <mxPoint x="720" y="360" as="targetPoint" />
          </mxGeometry>
        </mxCell>
        <mxCell id="QjlgSMQUOBEvEYTRAgmL-55" value="Cloud To OnPremise" style="rounded=0;whiteSpace=wrap;html=1;hachureGap=4;fontFamily=Architects Daughter;fontSource=https%3A%2F%2Ffonts.googleapis.com%2Fcss%3Ffamily%3DArchitects%2BDaughter;fillColor=#60a917;strokeColor=#2D7600;fontSize=18;fontColor=#ffffff;" vertex="1" parent="1">
          <mxGeometry x="442" y="330" width="120" height="60" as="geometry" />
        </mxCell>
        <mxCell id="QjlgSMQUOBEvEYTRAgmL-54" value="OnPremise To Cloud" style="rounded=0;whiteSpace=wrap;html=1;hachureGap=4;fontFamily=Architects Daughter;fontSource=https%3A%2F%2Ffonts.googleapis.com%2Fcss%3Ffamily%3DArchitects%2BDaughter;fillColor=#60a917;strokeColor=#2D7600;fontSize=18;fontColor=#ffffff;" vertex="1" parent="1">
          <mxGeometry x="202" y="330" width="120" height="60" as="geometry" />
        </mxCell>
        <mxCell id="QjlgSMQUOBEvEYTRAgmL-68" value="" style="group;fillColor=none;" vertex="1" connectable="0" parent="1">
          <mxGeometry x="50" y="50" width="60" height="55" as="geometry" />
        </mxCell>
        <mxCell id="QjlgSMQUOBEvEYTRAgmL-64" value="" style="html=1;verticalLabelPosition=bottom;align=center;labelBackgroundColor=#ffffff;verticalAlign=top;strokeWidth=2;strokeColor=#6c8ebf;shadow=0;dashed=0;shape=mxgraph.ios7.icons.cloud;hachureGap=4;fontFamily=Architects Daughter;fontSource=https%3A%2F%2Ffonts.googleapis.com%2Fcss%3Ffamily%3DArchitects%2BDaughter;fillColor=#dae8fc;" vertex="1" parent="QjlgSMQUOBEvEYTRAgmL-68">
          <mxGeometry width="60" height="50" as="geometry" />
        </mxCell>
        <mxCell id="QjlgSMQUOBEvEYTRAgmL-62" value="" style="fontColor=#0066CC;verticalAlign=top;verticalLabelPosition=bottom;labelPosition=center;align=center;html=1;outlineConnect=0;fillColor=#CCCCCC;strokeColor=#6881B3;gradientColor=none;gradientDirection=north;strokeWidth=2;shape=mxgraph.networks.server;hachureGap=4;fontFamily=Architects Daughter;fontSource=https%3A%2F%2Ffonts.googleapis.com%2Fcss%3Ffamily%3DArchitects%2BDaughter;shadow=0;" vertex="1" parent="QjlgSMQUOBEvEYTRAgmL-68">
          <mxGeometry x="15" y="20" width="30" height="35" as="geometry" />
        </mxCell>
        <mxCell id="QjlgSMQUOBEvEYTRAgmL-70" value="" style="group" vertex="1" connectable="0" parent="1">
          <mxGeometry x="50" y="450" width="59.05500000000001" height="63" as="geometry" />
        </mxCell>
        <mxCell id="QjlgSMQUOBEvEYTRAgmL-69" value="" style="sketch=0;pointerEvents=1;shadow=0;dashed=0;html=1;strokeColor=none;fillColor=#505050;labelPosition=center;verticalLabelPosition=bottom;verticalAlign=top;outlineConnect=0;align=center;shape=mxgraph.office.concepts.home;hachureGap=4;jiggle=2;curveFitting=1;fontFamily=Architects Daughter;fontSource=https%3A%2F%2Ffonts.googleapis.com%2Fcss%3Ffamily%3DArchitects%2BDaughter;aspect=fixed;" vertex="1" parent="QjlgSMQUOBEvEYTRAgmL-70">
          <mxGeometry width="59.055" height="57.54" as="geometry" />
        </mxCell>
        <mxCell id="QjlgSMQUOBEvEYTRAgmL-66" value="" style="fontColor=#0066CC;verticalAlign=top;verticalLabelPosition=bottom;labelPosition=center;align=center;html=1;outlineConnect=0;fillColor=#CCCCCC;strokeColor=#6881B3;gradientColor=none;gradientDirection=north;strokeWidth=2;shape=mxgraph.networks.server;hachureGap=4;fontFamily=Architects Daughter;fontSource=https%3A%2F%2Ffonts.googleapis.com%2Fcss%3Ffamily%3DArchitects%2BDaughter;shadow=0;" vertex="1" parent="QjlgSMQUOBEvEYTRAgmL-70">
          <mxGeometry x="14.530000000000001" y="28" width="30" height="35" as="geometry" />
        </mxCell>
      </root>
    </mxGraphModel>
  </diagram>
</mxfile>
